<svg viewBox="0 0 290.28 127.63" xmlns="http://www.w3.org/2000/svg">
                <path d="M214.89,192.05l0,.17a51,51,0,0,1-2.34,8.65,22.91,22.91,0,0,1-3.82,5.67,20.15,20.15,0,0,1-4.24,3.5.07.07,0,0,1-.06,0,40.56,40.56,0,0,1-8.38,5.52c-3.53,1.88-10.91,4.62-11,4.64a25.79,25.79,0,0,1-3.71.7,6.87,6.87,0,0,1-.73.32,3.46,3.46,0,0,1-1,.12,2.53,2.53,0,0,1-1.66.78c-1.28.17-12.3.63-19.68.63H156c-5.66,0-10.12-.06-14.16-.17-4.34-.12-5.37-.56-5.41-.58a3.06,3.06,0,0,1-1.06-1H135c-.22,0-.43,0-.65-.06-2.6-.12-5.06-.25-6.78-.37-4.14-.3-25.07-.4-34-.4-2.13,0-4.57,0-7.07,0l-2.55,0s0,0-.08,0a4.91,4.91,0,0,1-2.57,1h-.07a10.52,10.52,0,0,1-1.47.07c-1,0-2.46-.05-4.42-.13a8.57,8.57,0,0,1-3.63-1.06.21.21,0,0,1-.13.05h0l-2.48-.05-1.07,0c-2.44,0-11-.23-20.22-.4.74,1.38,1.46,2.77,2,3.83.25.47.81,1.62.66,2a.3.3,0,0,1-.17.18,9.44,9.44,0,0,1-2.8.43,6.5,6.5,0,0,1-1.84-.25,15.42,15.42,0,0,1-8.11-5.43s-.34-.41-.71-1c-7.58-.13-11.63-.18-12.37-.16a55.54,55.54,0,0,0-6.46.46l-1.22.27c-1.11.25-2.63.61-4.6.89a32.78,32.78,0,0,1-5.26.42.13.13,0,0,1,0,.05,1.81,1.81,0,0,1-1.29.35H-1.28c-13.56,0-24.88-.13-32.37-.24a3.88,3.88,0,0,1-2.27-1c-.68-.07-1.37-.14-2-.23l-.78-.11a17.64,17.64,0,0,1-3.27-.63,17.89,17.89,0,0,1-1.94-.88L-45,218l-1.53-.67c-.7-.3-1.47-.63-2.25-1a13,13,0,0,1-4-2.53,87.84,87.84,0,0,1-6.74-8.17c-2-2.78-4.77-6.82-6.09-9A30.56,30.56,0,0,1-68.89,191,39.5,39.5,0,0,1-71,180.6l0-.41c-.35-4.49-.71-9.14-.71-17.75s.36-13.27.71-17.76l0-.41a39.5,39.5,0,0,1,2.08-10.35A32.49,32.49,0,0,1-65.4,128a.17.17,0,0,1,.1-.06c1.4-2.22,4-5.93,5.83-8.54a87.84,87.84,0,0,1,6.74-8.17,13,13,0,0,1,4-2.53c.78-.36,1.55-.69,2.25-1s1.08-.46,1.53-.67.72-.35,1.09-.53a17.89,17.89,0,0,1,1.94-.88,17.85,17.85,0,0,1,3.27-.62l.78-.12c.62-.09,1.31-.16,2-.23a3.94,3.94,0,0,1,2.26-1c8.6-.13,22.25-.28,38.52-.23h.72a1.76,1.76,0,0,1,1.29.36.47.47,0,0,1,.09.12,32.3,32.3,0,0,1,5.2.42c2,.28,3.48.63,4.59.89l1.23.27a55.72,55.72,0,0,0,6.46.46c.76,0,5,0,12.37-.16a11.23,11.23,0,0,1,.72-1,15.37,15.37,0,0,1,8.1-5.43,6.5,6.5,0,0,1,1.84-.25,9.44,9.44,0,0,1,2.8.43.3.3,0,0,1,.17.18c.15.39-.41,1.54-.66,2-.49,1-1.21,2.44-2,3.82,8.73-.16,17.48-.34,20.22-.4l1,0,2.51,0h0a.21.21,0,0,1,.13,0,8.57,8.57,0,0,1,3.63-1.06c2-.08,3.39-.13,4.42-.13a10.52,10.52,0,0,1,1.47.07h.07a4.86,4.86,0,0,1,2.57,1s0,0,.08,0l2.34,0c2.58,0,5.1,0,7.28,0,8.91,0,29.84-.1,34-.4,1.72-.12,4.18-.25,6.79-.37.21,0,.42,0,.64-.06h.27a3.33,3.33,0,0,1,1.18-1.21s1.07-.46,5.41-.58c4-.11,8.5-.13,14.16-.17h1.28c7.36,0,19.31.44,20.65.62a2.35,2.35,0,0,1,1.81,1,3.12,3.12,0,0,1,.83.12c.38.15.64.28.72.32a22.18,22.18,0,0,1,3.7.62c.09,0,7.47,2.77,11,4.65a40.27,40.27,0,0,1,8.39,5.53h.05a20.71,20.71,0,0,1,4.24,3.51,22.91,22.91,0,0,1,3.82,5.67,50.67,50.67,0,0,1,2.34,8.65l0,.17a146,146,0,0,1,2.83,29.54A146,146,0,0,1,214.89,192.05Z" transform="translate(72.14 -98.73)" fill="none" stroke="#000" stroke-linecap="round" stroke-linejoin="round" stroke-width="0.85"></path>
                <path d="M208.64,121.4" transform="translate(72.14 -98.73)" fill="none" stroke="#000" stroke-linecap="round" stroke-linejoin="round" stroke-width="0.57"></path>
                <path d="M201.65,112.46" transform="translate(72.14 -98.73)" fill="none" stroke="#000" stroke-linecap="round" stroke-linejoin="round" stroke-width="0.57"></path>
                <path d="M194.84,108.63" transform="translate(72.14 -98.73)" fill="none" stroke="#000" stroke-linecap="round" stroke-linejoin="round" stroke-width="0.57"></path>
                <path d="M181.27,104.37A23.53,23.53,0,0,1,185,105s7.41,2.74,11,4.63,7,4,9.29,6.45a26.57,26.57,0,0,1,6.17,10.56A136.08,136.08,0,0,1,216,162.39" transform="translate(72.14 -98.73)" fill="none" stroke="#000" stroke-linecap="round" stroke-linejoin="round" stroke-width="0.57"></path>
                <path d="M84,105.2c3.36,0,6.77-.06,9.61-.06,8,0,29.7-.09,34-.4s13.15-.66,17.59-.75,18.44,0,21.38-.08,7.68,0,9.68,0a27.19,27.19,0,0,1,4.27.13c.44.17.75.33.75.33" transform="translate(72.14 -98.73)" fill="none" stroke="#000" stroke-linecap="round" stroke-linejoin="round" stroke-width="0.57"></path>
                <path d="M47.62,105.81c9-.17,17.79-.35,20.44-.41l3.54-.08" transform="translate(72.14 -98.73)" fill="none" stroke="#000" stroke-linecap="round" stroke-linejoin="round" stroke-width="0.57"></path>
                <path d="M-32,104.65c12.89-.61,32.18-.63,36.6-.57a43.54,43.54,0,0,1,7.49.46c2.77.4,4.62.93,5.81,1.16a57.08,57.08,0,0,0,6.5.46c.85,0,5.95,0,12.4-.16" transform="translate(72.14 -98.73)" fill="none" stroke="#000" stroke-linecap="round" stroke-linejoin="round" stroke-width="0.57"></path>
                <path d="M-69.83,162.55c0-21.21,5.58-33.2,5.58-33.2a54.18,54.18,0,0,1,12.44-17s1.84-1.49,2.53-2a14.38,14.38,0,0,1,3-1.69c1.2-.51,3.6-1.22,6.19-2s4.88-1.37,5.66-1.55a16.35,16.35,0,0,1,2.4-.42" transform="translate(72.14 -98.73)" fill="none" stroke="#000" stroke-linecap="round" stroke-linejoin="round" stroke-width="0.57"></path>
                <path d="M37.68,105s-2,2.4-2,4.51c0,2.73,3.76,2.49,3.76,2.49l3.89-.07s.81,0,1.49-1.19,3.5-6.2,4.82-9c0,0,.93-1.78.6-1.91a8.5,8.5,0,0,0-4.51-.18A15.33,15.33,0,0,0,37.68,105Z" transform="translate(72.14 -98.73)" fill="none" stroke="#000" stroke-linecap="round" stroke-linejoin="round" stroke-width="0.57"></path>
                <path d="M43.53,111.71c-.44-.68,2.79-5.91,2.79-5.91s3.41-6.1,3.94-5.92" transform="translate(72.14 -98.73)" fill="none" stroke="#000" stroke-linecap="round" stroke-linejoin="round" stroke-width="0.57"></path>
                <path d="M45.4,105.45s-3.5,5.43-2.68,6.4" transform="translate(72.14 -98.73)" fill="none" stroke="#000" stroke-linecap="round" stroke-linejoin="round" stroke-width="0.57"></path>
                <path d="M45.4,105.45s3.34-5.88,4-5.86" transform="translate(72.14 -98.73)" fill="none" stroke="#000" stroke-linecap="round" stroke-linejoin="round" stroke-width="0.57"></path>
                <path d="M36.52,106.57s-2.66,1.62-4.48,2.92a.81.81,0,0,0-.36.88c.18.52.92,1.09,2.31,1.18a25,25,0,0,0,3,0" transform="translate(72.14 -98.73)" fill="none" stroke="#000" stroke-linecap="round" stroke-linejoin="round" stroke-width="0.57"></path>
                <path d="M21.65,106.08a22.82,22.82,0,0,0,2.81,7.26" transform="translate(72.14 -98.73)" fill="none" stroke="#000" stroke-linecap="round" stroke-linejoin="round" stroke-width="0.57"></path>
                <path d="M85.16,106.47c-1.79-2-3-2.11-3.94-2.22a51.08,51.08,0,0,0-5.86.06,9.66,9.66,0,0,0-5.26,2.18l2.94,0a5.15,5.15,0,0,1,3.4-1.31c2.11,0,3.36,0,3.36,0a1.64,1.64,0,0,1,1.65,1.36Z" transform="translate(72.14 -98.73)" fill="none" stroke="#000" stroke-linecap="round" stroke-linejoin="round" stroke-width="0.57"></path>
                <path d="M144.81,106.47c-1.79-2-3.05-2.11-3.94-2.22a50.91,50.91,0,0,0-5.85.06,9.67,9.67,0,0,0-5.27,2.18l2.94,0a5.18,5.18,0,0,1,3.4-1.31c2.11,0,3.36,0,3.36,0a1.64,1.64,0,0,1,1.65,1.36Z" transform="translate(72.14 -98.73)" fill="none" stroke="#000" stroke-linecap="round" stroke-linejoin="round" stroke-width="0.57"></path>
                <path d="M162.57,111.19c-5.45-.14-7-1.21-7-1.21a3.23,3.23,0,0,1-1.42-2.89c0-1.29,1.93-1.31,1.93-1.31s4-.07,6.29.08a30.57,30.57,0,0,1,5,.66,1.35,1.35,0,0,1,1.12,1.56,3.36,3.36,0,0,1-1.49,2.47A13.52,13.52,0,0,1,162.57,111.19Z" transform="translate(72.14 -98.73)" fill="none" stroke="#000" stroke-linecap="round" stroke-linejoin="round" stroke-width="0.43"></path>
                <path d="M134,121.93" transform="translate(72.14 -98.73)" fill="none" stroke="#000" stroke-linecap="round" stroke-linejoin="round" stroke-width="0.57"></path>
                <path d="M106,122s16.77-.27,25.1-.54c1.7,0,3.05-.1,3.83-.15a145,145,0,0,0,15.54-1.92c4-.79,8.61-1.68,8.61-2.24,0-.73-15.07-2-15.07-2-20.86-1.37-36.08-2.11-53.94-2.25-11.48-.08-35.18.16-50.64.35l-14.63.18s4.26,1,6.48,1.41c1.49.26,7.23,1.42,11.83,2.33,2.29.45,4.29.84,5.35,1,3.19.58,10.75,2,14.45,2.46,3.27.4,14.42,1.26,19.33,1.31C86.73,122,102.13,122.21,106,122Z" transform="translate(72.14 -98.73)" fill="none" stroke="#000" stroke-linecap="round" stroke-linejoin="round" stroke-width="0.57"></path>
                <path d="M131.23,121.3" transform="translate(72.14 -98.73)" fill="none" stroke="#000" stroke-linecap="round" stroke-linejoin="round" stroke-width="0.57"></path>
                <path d="M139,114.84a50.43,50.43,0,0,0-8,6.62" transform="translate(72.14 -98.73)" fill="none" stroke="#000" stroke-linecap="round" stroke-linejoin="round" stroke-width="0.57"></path>
                <path d="M134.53,121.33a52.3,52.3,0,0,1,9.48-6.16l.62-1.13a42.44,42.44,0,0,0,3.1-4.91,6.45,6.45,0,0,0,.73-2.44c.07-.6-1.29-1.32-2-1.65A18.57,18.57,0,0,1,144.8,104" transform="translate(72.14 -98.73)" fill="none" stroke="#000" stroke-linecap="round" stroke-linejoin="round" stroke-width="0.57"></path>
                <line x1="208.27" y1="15.95" x2="208.89" y2="17.63" fill="none" stroke="#000" stroke-linecap="round" stroke-linejoin="round" stroke-width="0.57"></line>
                <path d="M39.47,113.32s2.9,3,3.59,3.83" transform="translate(72.14 -98.73)" fill="none" stroke="#000" stroke-linecap="round" stroke-linejoin="round" stroke-width="0.57"></path>
                <path d="M41.46,113.27s2.71,2.67,3.95,4.27" transform="translate(72.14 -98.73)" fill="none" stroke="#000" stroke-linecap="round" stroke-linejoin="round" stroke-width="0.57"></path>
                <path d="M85.21,112.92s5.08,5,7,9.14" transform="translate(72.14 -98.73)" fill="none" stroke="#000" stroke-linecap="round" stroke-linejoin="round" stroke-width="0.57"></path>
                <path d="M96,113a44.63,44.63,0,0,1,2.77,9" transform="translate(72.14 -98.73)" fill="none" stroke="#000" stroke-linecap="round" stroke-linejoin="round" stroke-width="0.57"></path>
                <path d="M85.68,106h1.73c7,0,28,.08,42.15.16" transform="translate(72.14 -98.73)" fill="none" stroke="#000" stroke-linecap="round" stroke-linejoin="round" stroke-width="0.28"></path>
                <path d="M87.47,106.09a9.8,9.8,0,0,1,1.59,3.2c.63,1.94.75,2.38.75,2.38l.26,1.25a41.11,41.11,0,0,1,5.24,9.14" transform="translate(72.14 -98.73)" fill="none" stroke="#000" stroke-linecap="round" stroke-linejoin="round" stroke-width="0.57"></path>
                <path d="M15.93,117l1.81.73s15.71,2,39.43,6.4" transform="translate(72.14 -98.73)" fill="none" stroke="#000" stroke-linecap="round" stroke-linejoin="round" stroke-width="0.28"></path>
                <path d="M57.56,124.08a.84.84,0,0,0-.62-1.09l-.86-.23c-.86-.24-6.37-1.23-12.44-2.35S16.82,116,16.82,116" transform="translate(72.14 -98.73)" fill="none" stroke="#000" stroke-linecap="round" stroke-linejoin="round" stroke-width="0.57"></path>
                <path d="M57.79,124.24s10.55,1.22,14,1.57,33.37,2.09,40.89,2.42,35.6,1.65,47.55,2.05" transform="translate(72.14 -98.73)" fill="none" stroke="#000" stroke-linecap="round" stroke-linejoin="round" stroke-width="0.28"></path>
                <path d="M85.81,123.18c10,.6,22.39,1.29,26.85,1.49,7.29.32,33.88,1.57,46.39,2" transform="translate(72.14 -98.73)" fill="none" stroke="#000" stroke-linecap="round" stroke-linejoin="round" stroke-width="0.28"></path>
                <path d="M173,122.63" transform="translate(72.14 -98.73)" fill="none" stroke="#000" stroke-linecap="round" stroke-linejoin="round" stroke-width="0.57"></path>
                <path d="M160.59,162.46l.09-32.07v-.49s-.08-4.34,1-5.3,2.14-1.07,4.45-1.34c1.63-.18,4-.25,6-.35l.77,0,.08.86s-2.39,1.1-2.39,2.15a7.08,7.08,0,0,0,1,3,54.75,54.75,0,0,1,2.88,11.92,180.85,180.85,0,0,1,1.23,21.51" transform="translate(72.14 -98.73)" fill="none" stroke="#000" stroke-linecap="round" stroke-linejoin="round" stroke-width="0.57"></path>
                <path d="M197.9,155.57a1.38,1.38,0,0,1-.14.24c-.83,1.32-1.32,1.76-1.32,3.61v3.08" transform="translate(72.14 -98.73)" fill="none" stroke="#000" stroke-linecap="round" stroke-linejoin="round" stroke-width="0.28"></path>
                <path d="M174.05,129.51s12.72-.13,14.34,0,5.15.14,6.25,4.18c.46,1.69,1,4.14,1.55,6.64" transform="translate(72.14 -98.73)" fill="none" stroke="#000" stroke-linecap="round" stroke-linejoin="round" stroke-width="0.28"></path>
                <path d="M23.78,113.5s22.87,4.92,30.31,6.24a173.1,173.1,0,0,0,27.2,2.72c10.07.16,20.51,0,24.35,0,0,0,23.78-.27,28.93-.53a136.66,136.66,0,0,0,13.89-1.45s13.17-2.08,13.17-3.6c0-.76-1.62-1-2.94-1.25S143.12,114,143.12,114c-2.9-.3-9-.76-16.23-1.2s-25-1-28.24-1.06-13.93,0-18.78,0-21.61.1-28.28.16-27.65.43-27.65.43" transform="translate(72.14 -98.73)" fill="none" stroke="#000" stroke-linecap="round" stroke-linejoin="round" stroke-width="0.43"></path>
                <path d="M3.39,162.55a131.66,131.66,0,0,1,2.18-24.09C7.61,127,12,120.31,15,117.25s9.09-3.8,9.09-3.8h.71" transform="translate(72.14 -98.73)" fill="none" stroke="#000" stroke-linecap="round" stroke-linejoin="round" stroke-width="0.57"></path>
                <path d="M17.53,117.81s-9.45,20.72-9.45,44.6" transform="translate(72.14 -98.73)" fill="none" stroke="#000" stroke-linecap="round" stroke-linejoin="round" stroke-width="0.57"></path>
                <path d="M57.56,124.08a157,157,0,0,0-5,38.47" transform="translate(72.14 -98.73)" fill="none" stroke="#000" stroke-linecap="round" stroke-linejoin="round" stroke-width="0.57"></path>
                <path d="M13.93,162.37c0-24.28,6.51-40.21,6.51-40.21s1-3.47,7.91-2.37,20.86,3.34,22.75,3.82,4,.84,3.34,4a161,161,0,0,0-4,28.68" transform="translate(72.14 -98.73)" fill="none" stroke="#000" stroke-linecap="round" stroke-linejoin="round" stroke-width="0.28"></path>
                <path d="M-59,133.12a501,501,0,0,1,71.53-16.24" transform="translate(72.14 -98.73)" fill="none" stroke="#000" stroke-linecap="round" stroke-linejoin="round" stroke-width="0.28"></path>
                <path d="M-64.81,146.24s36.31-7.74,68.38-9" transform="translate(72.14 -98.73)" fill="none" stroke="#000" stroke-linecap="round" stroke-linejoin="round" stroke-width="0.28"></path>
                <path d="M-65.62,162.51s.64-1.73,1.8-1.73h1.43a.59.59,0,0,1,.32.41,11.55,11.55,0,0,1,.1,1.32" transform="translate(72.14 -98.73)" fill="none" stroke="#000" stroke-linecap="round" stroke-linejoin="round" stroke-width="0.57"></path>
                <path d="M-27.65,111.78s25.12.31,31.55.62,10.64.61,13.77,1.93" transform="translate(72.14 -98.73)" fill="none" stroke="#000" stroke-linecap="round" stroke-linejoin="round" stroke-width="0.28"></path>
                <path d="M8,149.83a113.24,113.24,0,0,0-.79,12.22" transform="translate(72.14 -98.73)" fill="none" stroke="#000" stroke-linecap="round" stroke-linejoin="round" stroke-width="0.54"></path>
                <path d="M9.56,185.75c2.94,13.18,7.44,20,7.44,20" transform="translate(72.14 -98.73)" fill="none" stroke="#000" stroke-linecap="round" stroke-linejoin="round" stroke-width="0.54"></path>
                <path d="M7.21,162.05a111.71,111.71,0,0,0,.52,12.23s.21,2,.4,3.48" transform="translate(72.14 -98.73)" fill="none" stroke="#000" stroke-linecap="round" stroke-linejoin="round" stroke-width="0.54"></path>
                <path d="M9.12,174.44c.26,3.09.91,10.19,1.22,13l.69,0c-1.63-15-2.55-36.15-2.55-36.15l-.68,0s.32,7.57.94,16.87" transform="translate(72.14 -98.73)" fill="none" stroke="#000" stroke-linecap="round" stroke-linejoin="round" stroke-width="0.43"></path>
                <path d="M8.49,171.76s.16,6.28.06,8.32c0,0-.13,2.35-.3,5.21s-.33,5.43-.33,5.43-.26,2-.42,2.82" transform="translate(72.14 -98.73)" fill="none" stroke="#000" stroke-linecap="round" stroke-linejoin="round" stroke-width="0.43"></path>
                <path d="M9,184.51s.46,8.92.49,9.58c0,0,0,2-.75,1.87" transform="translate(72.14 -98.73)" fill="none" stroke="#000" stroke-linecap="round" stroke-linejoin="round" stroke-width="0.43"></path>
                <path d="M8.73,194.42,9,183c.24-5.77,0-10.64,0-10.64a4.65,4.65,0,0,1-.45-.51,1.09,1.09,0,0,1-.26-.5c0-.35-.08-2.73-.08-2.73l.35-.31.73,0" transform="translate(72.14 -98.73)" fill="none" stroke="#000" stroke-linecap="round" stroke-linejoin="round" stroke-width="0.43"></path>
                <line x1="80.58" y1="69.88" x2="81.03" y2="69.88" fill="none" stroke="#000" stroke-linecap="round" stroke-linejoin="round" stroke-width="0.54"></line>
                <line x1="81.42" y1="69.57" x2="81.22" y2="69.76" fill="none" stroke="#000" stroke-linecap="round" stroke-linejoin="round" stroke-width="0.54"></line>
                <line x1="81.13" y1="70.12" x2="81.32" y2="73.34" fill="none" stroke="#000" stroke-linecap="round" stroke-linejoin="round" stroke-width="0.54"></line>
                <path d="M13.43,133.55l-.57-.24a.52.52,0,0,0-.72.3c-.16.52-.71,2.22-.71,2.22l0,1-.81,2.41.32.14.16.16.64-2,.57-.85.27,0Z" transform="translate(72.14 -98.73)" fill="none" stroke="#000" stroke-linecap="round" stroke-linejoin="round" stroke-width="0.43"></path>
                <line x1="84.33" y1="37.57" x2="85.04" y2="35.02" fill="none" stroke="#000" stroke-linecap="round" stroke-linejoin="round" stroke-width="0.54"></line>
                <path d="M10.63,139.24s-1.07,3.15-4.82,16.47c0,0-1.83,5.12-2.19,6.08" transform="translate(72.14 -98.73)" fill="none" stroke="#000" stroke-linecap="round" stroke-linejoin="round" stroke-width="0.43"></path>
                <path d="M11,139.47s-1.07,3.15-4.82,16.47l.08.29s-.71,5.57-.89,6.6a8.27,8.27,0,0,1-.62,2.51" transform="translate(72.14 -98.73)" fill="none" stroke="#000" stroke-linecap="round" stroke-linejoin="round" stroke-width="0.43"></path>
                <line x1="76.72" y1="64.56" x2="78.22" y2="57.52" fill="none" stroke="#000" stroke-linecap="round" stroke-linejoin="round" stroke-width="0.43"></line>
                <path d="M11.79,137.49" transform="translate(72.14 -98.73)" fill="none" stroke="#000" stroke-linecap="round" stroke-linejoin="round" stroke-width="0.54"></path>
                <path d="M13.1,133.25c1.35-4.35,2.86-9,4.36-13.37l.5.13c-4.48,13-9.18,29.38-9.18,29.38l-.47-.16" transform="translate(72.14 -98.73)" fill="none" stroke="#000" stroke-linecap="round" stroke-linejoin="round" stroke-width="0.43"></path>
                <line x1="80.81" y1="97.18" x2="80.28" y2="97.05" fill="none" stroke="#000" stroke-linecap="round" stroke-linejoin="round" stroke-width="0.43"></line>
                <path d="M4.75,164.7a7.83,7.83,0,0,0-.06,2.6,32,32,0,0,0,.66,3.25A3.68,3.68,0,0,1,5.57,172a.92.92,0,0,1-.91.87.86.86,0,0,1-.81-.3" transform="translate(72.14 -98.73)" fill="none" stroke="#000" stroke-linecap="round" stroke-linejoin="round" stroke-width="0.43"></path>
                <line x1="75.82" y1="64.59" x2="76.37" y2="64.87" fill="none" stroke="#000" stroke-linecap="round" stroke-linejoin="round" stroke-width="0.43"></line>
                <path d="M4.38,163.82s-.22.62.22.86" transform="translate(72.14 -98.73)" fill="none" stroke="#000" stroke-linecap="round" stroke-linejoin="round" stroke-width="0.43"></path>
                <path d="M5.13,171.83a.74.74,0,0,1-.69.79.8.8,0,0,1,0-1.58A.74.74,0,0,1,5.13,171.83Z" transform="translate(72.14 -98.73)" fill="none" stroke="#000" stroke-linecap="round" stroke-linejoin="round" stroke-width="0.43"></path>
                <polyline points="85.45 20.93 86.28 20.84 88.66 20.62" fill="none" stroke="#000" stroke-linecap="round" stroke-linejoin="round" stroke-width="0.43"></polyline>
                <path d="M6.82,150.47s1-16.53,7.32-30.9" transform="translate(72.14 -98.73)" fill="none" stroke="#000" stroke-linecap="round" stroke-linejoin="round" stroke-width="0.43"></path>
                <path d="M180.37,108.14" transform="translate(72.14 -98.73)" fill="none" stroke="#000" stroke-linecap="round" stroke-linejoin="round" stroke-width="0.43"></path>
                <path d="M183.86,108.14s-3.53-.43-3.49,0,3,1.12,3,1.12,7.75,2.64,10.72,5.41a34.73,34.73,0,0,1,7.42,9.87c1.45,3.2,3,7.34,3.67,8.62a24.89,24.89,0,0,1,2.25,6,118.56,118.56,0,0,1,2.15,23.36" transform="translate(72.14 -98.73)" fill="none" stroke="#000" stroke-linecap="round" stroke-linejoin="round" stroke-width="0.43"></path>
                <path d="M172.43,103.91s6.46,3.34,10.77,4c0,0,6.07,1.41,8.54,2.37s7.43,4.31,9.06,6.56a44.87,44.87,0,0,1,6.77,14.74c1.67,6.86,4.4,16,4.4,30.9" transform="translate(72.14 -98.73)" fill="none" stroke="#000" stroke-linecap="round" stroke-linejoin="round" stroke-width="0.43"></path>
                <path d="M186.74,110.53a1.51,1.51,0,0,1,1.1-.07,38.27,38.27,0,0,1,6.27,2.53,26.92,26.92,0,0,1,5.39,4.31,31,31,0,0,1,4.2,6.82,127.36,127.36,0,0,1,4.66,15.29,113,113,0,0,1,2.29,23.14" transform="translate(72.14 -98.73)" fill="none" stroke="#000" stroke-linecap="round" stroke-linejoin="round" stroke-width="0.43"></path>
                <path d="M205.29,124.86s2.9,1.74,3.56,3.42a154.76,154.76,0,0,1,4.09,18.21,120.45,120.45,0,0,1,1,16" transform="translate(72.14 -98.73)" fill="none" stroke="#000" stroke-linecap="round" stroke-linejoin="round" stroke-width="0.43"></path>
                <path d="M199,163.57H199a1,1,0,0,1-.91-1.11,1.25,1.25,0,0,1,.39-.92" transform="translate(72.14 -98.73)" fill="none" stroke="#000" stroke-linecap="round" stroke-linejoin="round" stroke-width="0.29"></path>
                <path d="M199.63,163.24a.89.89,0,0,1-.61.33" transform="translate(72.14 -98.73)" fill="none" stroke="#000" stroke-linecap="round" stroke-linejoin="round" stroke-width="0.57"></path>
                <path d="M198.48,161.36h-.07a1.14,1.14,0,0,0,0,2.23l.56,0" transform="translate(72.14 -98.73)" fill="none" stroke="#000" stroke-linecap="round" stroke-linejoin="round" stroke-width="0.57"></path>
                <path d="M199.33,162.47" transform="translate(72.14 -98.73)" fill="none" stroke="#000" stroke-linecap="round" stroke-linejoin="round" stroke-width="0.29"></path>
                <path d="M199.75,163.14a.73.73,0,0,1-.65-.79.74.74,0,0,1,.65-.8.57.57,0,0,1,.39.16" transform="translate(72.14 -98.73)" fill="none" stroke="#000" stroke-linecap="round" stroke-linejoin="round" stroke-width="0.21"></path>
                <path d="M200.14,161.71a.85.85,0,0,1,.27.64.73.73,0,0,1-.66.79" transform="translate(72.14 -98.73)" fill="none" stroke="#000" stroke-linecap="round" stroke-linejoin="round" stroke-width="0.57"></path>
                <path d="M199.23,163.26h-.1a.73.73,0,0,1-.65-.79" transform="translate(72.14 -98.73)" fill="none" stroke="#000" stroke-linecap="round" stroke-linejoin="round" stroke-width="0.57"></path>
                <path d="M198.47,162.38c0-.11.06-.68,0-1.19s-.09-1.28-.37-5S197,144.33,197,144.33s0-.35.06-.35l.42,0s.35.08.4.35.33,3,.39,3.61.49,2.13.64,3.12.64,3.67.79,5.21.38,3.21.39,3.84,0,1.62,0,1.62" transform="translate(72.14 -98.73)" fill="none" stroke="#000" stroke-linecap="round" stroke-linejoin="round" stroke-width="0.57"></path>
                <line x1="271.37" y1="64.53" x2="272.03" y2="64.39" fill="none" stroke="#000" stroke-linecap="round" stroke-linejoin="round" stroke-width="0.57"></line>
                <path d="M197.28,144.29s.42,3.19.53,4.07,1,8.27,1.08,9.39.22,3.1.28,3.74" transform="translate(72.14 -98.73)" fill="none" stroke="#000" stroke-linecap="round" stroke-linejoin="round" stroke-width="0.28"></path>
                <polyline points="269.11 45.76 267.66 35.42 267.55 35.4 267.51 34.56 268.03 34.47 268.21 35.3 268.13 35.35 269.55 45.14" fill="none" stroke="#000" stroke-linecap="round" stroke-linejoin="round" stroke-width="0.57"></polyline>
                <path d="M169.3,107.53l2.69.25c3.95.39,7.39.61,7.39.61" transform="translate(72.14 -98.73)" fill="none" stroke="#000" stroke-linecap="round" stroke-linejoin="round" stroke-width="0.28"></path>
                <path d="M149,106.23l1.6,0,3.11.15" transform="translate(72.14 -98.73)" fill="none" stroke="#000" stroke-linecap="round" stroke-linejoin="round" stroke-width="0.28"></path>
                <path d="M145.37,106.19l2.27,0" transform="translate(72.14 -98.73)" fill="none" stroke="#000" stroke-linecap="round" stroke-linejoin="round" stroke-width="0.28"></path>
                <path d="M133.54,106.28s3-.06,6.64-.08" transform="translate(72.14 -98.73)" fill="none" stroke="#000" stroke-linecap="round" stroke-linejoin="round" stroke-width="0.28"></path>
                <path d="M47.63,106.39s14.72-.16,21.88-.1" transform="translate(72.14 -98.73)" fill="none" stroke="#000" stroke-linecap="round" stroke-linejoin="round" stroke-width="0.28"></path>
                <path d="M73.76,106.32l7.1-.06" transform="translate(72.14 -98.73)" fill="none" stroke="#000" stroke-linecap="round" stroke-linejoin="round" stroke-width="0.28"></path>
                <path d="M215.71,162.55" transform="translate(72.14 -98.73)" fill="none" stroke="#000" stroke-linecap="round" stroke-linejoin="round" stroke-width="0.57"></path>
                <path d="M84,219.89c3.36,0,6.77.06,9.61.06,8,0,29.7.09,34,.4s13.15.66,17.59.75,18.44,0,21.38.09,7.68,0,9.68,0a28.05,28.05,0,0,0,4.27-.14c.44-.17.75-.33.75-.33" transform="translate(72.14 -98.73)" fill="none" stroke="#000" stroke-linecap="round" stroke-linejoin="round" stroke-width="0.57"></path>
                <path d="M47.62,219.28c9,.17,17.79.35,20.44.41l3.54.08" transform="translate(72.14 -98.73)" fill="none" stroke="#000" stroke-linecap="round" stroke-linejoin="round" stroke-width="0.57"></path>
                <path d="M-69.83,162.55c0,21.2,5.58,33.19,5.58,33.19A58.17,58.17,0,0,0-52.06,213s7.21,6.86,20.1,7.48,32.18.63,36.6.57a43.54,43.54,0,0,0,7.49-.46c2.77-.4,4.62-.93,5.81-1.16a57.08,57.08,0,0,1,6.5-.46c.85,0,5.95,0,12.4.16" transform="translate(72.14 -98.73)" fill="none" stroke="#000" stroke-linecap="round" stroke-linejoin="round" stroke-width="0.57"></path>
                <path d="M37.68,220.13s-2-2.4-2-4.51c0-2.73,3.76-2.49,3.76-2.49l3.89.07s.81,0,1.49,1.19,3.5,6.2,4.82,9c0,0,.93,1.78.6,1.91a8.5,8.5,0,0,1-4.51.18A15.33,15.33,0,0,1,37.68,220.13Z" transform="translate(72.14 -98.73)" fill="none" stroke="#000" stroke-linecap="round" stroke-linejoin="round" stroke-width="0.57"></path>
                <path d="M43.53,213.38c-.44.68,2.79,5.91,2.79,5.91s3.41,6.1,3.94,5.92" transform="translate(72.14 -98.73)" fill="none" stroke="#000" stroke-linecap="round" stroke-linejoin="round" stroke-width="0.57"></path>
                <path d="M45.4,219.65s-3.5-5.44-2.68-6.4" transform="translate(72.14 -98.73)" fill="none" stroke="#000" stroke-linecap="round" stroke-linejoin="round" stroke-width="0.57"></path>
                <path d="M45.4,219.65s3.34,5.87,4,5.85" transform="translate(72.14 -98.73)" fill="none" stroke="#000" stroke-linecap="round" stroke-linejoin="round" stroke-width="0.57"></path>
                <path d="M36.52,218.52S33.86,216.9,32,215.6a.81.81,0,0,1-.36-.88c.18-.52.92-1.08,2.31-1.18a25,25,0,0,1,3,0" transform="translate(72.14 -98.73)" fill="none" stroke="#000" stroke-linecap="round" stroke-linejoin="round" stroke-width="0.57"></path>
                <path d="M21.65,219a22.82,22.82,0,0,1,2.81-7.26" transform="translate(72.14 -98.73)" fill="none" stroke="#000" stroke-linecap="round" stroke-linejoin="round" stroke-width="0.57"></path>
                <path d="M85.16,218.62c-1.79,2-3,2.11-3.94,2.22a51.08,51.08,0,0,1-5.86-.06,9.66,9.66,0,0,1-5.26-2.18l2.94,0a5.15,5.15,0,0,0,3.4,1.31c2.11,0,3.36,0,3.36,0a1.64,1.64,0,0,0,1.65-1.37Z" transform="translate(72.14 -98.73)" fill="none" stroke="#000" stroke-linecap="round" stroke-linejoin="round" stroke-width="0.57"></path>
                <path d="M144.81,218.62c-1.79,2-3.05,2.11-3.94,2.22a50.91,50.91,0,0,1-5.85-.06,9.67,9.67,0,0,1-5.27-2.18l2.94,0a5.18,5.18,0,0,0,3.4,1.31c2.11,0,3.36,0,3.36,0a1.64,1.64,0,0,0,1.65-1.37Z" transform="translate(72.14 -98.73)" fill="none" stroke="#000" stroke-linecap="round" stroke-linejoin="round" stroke-width="0.57"></path>
                <path d="M134,203.16" transform="translate(72.14 -98.73)" fill="none" stroke="#000" stroke-linecap="round" stroke-linejoin="round" stroke-width="0.57"></path>
                <path d="M106,203.06s16.77.27,25.1.54c1.7.05,3.05.1,3.83.15a145,145,0,0,1,15.54,1.92c4,.79,8.61,1.68,8.61,2.24,0,.73-15.07,2-15.07,2-20.86,1.37-36.08,2.11-53.94,2.25-11.48.08-35.18-.16-50.64-.34l-14.63-.19s4.26-1,6.48-1.41c1.49-.26,7.23-1.42,11.83-2.33,2.29-.45,4.29-.84,5.35-1,3.19-.58,10.75-2,14.45-2.46,3.27-.4,14.42-1.26,19.33-1.31C86.73,203.06,102.13,202.89,106,203.06Z" transform="translate(72.14 -98.73)" fill="none" stroke="#000" stroke-linecap="round" stroke-linejoin="round" stroke-width="0.57"></path>
                <path d="M131.23,203.79" transform="translate(72.14 -98.73)" fill="none" stroke="#000" stroke-linecap="round" stroke-linejoin="round" stroke-width="0.57"></path>
                <path d="M139,210.25a50.43,50.43,0,0,1-8-6.62" transform="translate(72.14 -98.73)" fill="none" stroke="#000" stroke-linecap="round" stroke-linejoin="round" stroke-width="0.57"></path>
                <path d="M134.53,203.76a52.3,52.3,0,0,0,9.48,6.16l.62,1.12a43.39,43.39,0,0,1,3.1,4.92,6.45,6.45,0,0,1,.73,2.44c.07.6-1.29,1.32-2,1.65a18.57,18.57,0,0,0-1.71,1.06" transform="translate(72.14 -98.73)" fill="none" stroke="#000" stroke-linecap="round" stroke-linejoin="round" stroke-width="0.57"></path>
                <line x1="208.27" y1="111.68" x2="208.89" y2="110.01" fill="none" stroke="#000" stroke-linecap="round" stroke-linejoin="round" stroke-width="0.57"></line>
                <path d="M39.47,211.77s2.9-3,3.59-3.83" transform="translate(72.14 -98.73)" fill="none" stroke="#000" stroke-linecap="round" stroke-linejoin="round" stroke-width="0.57"></path>
                <path d="M41.46,211.82s2.71-2.67,3.95-4.27" transform="translate(72.14 -98.73)" fill="none" stroke="#000" stroke-linecap="round" stroke-linejoin="round" stroke-width="0.57"></path>
                <path d="M85.21,212.17s5.08-4.95,7-9.14" transform="translate(72.14 -98.73)" fill="none" stroke="#000" stroke-linecap="round" stroke-linejoin="round" stroke-width="0.57"></path>
                <path d="M96,212.1a44.63,44.63,0,0,0,2.77-9" transform="translate(72.14 -98.73)" fill="none" stroke="#000" stroke-linecap="round" stroke-linejoin="round" stroke-width="0.57"></path>
                <path d="M85.68,219.05h1.73c7,0,28-.08,42.15-.16" transform="translate(72.14 -98.73)" fill="none" stroke="#000" stroke-linecap="round" stroke-linejoin="round" stroke-width="0.28"></path>
                <path d="M87.47,219a9.8,9.8,0,0,0,1.59-3.2c.63-1.94.75-2.38.75-2.38l.26-1.25A41.11,41.11,0,0,0,95.31,203" transform="translate(72.14 -98.73)" fill="none" stroke="#000" stroke-linecap="round" stroke-linejoin="round" stroke-width="0.57"></path>
                <path d="M15.93,208.08l1.81-.73s15.71-2,39.43-6.4" transform="translate(72.14 -98.73)" fill="none" stroke="#000" stroke-linecap="round" stroke-linejoin="round" stroke-width="0.28"></path>
                <path d="M57.56,201a.83.83,0,0,1-.62,1.08l-.86.23c-.86.24-6.37,1.23-12.44,2.35s-26.82,4.39-26.82,4.39" transform="translate(72.14 -98.73)" fill="none" stroke="#000" stroke-linecap="round" stroke-linejoin="round" stroke-width="0.57"></path>
                <path d="M57.79,200.85s10.55-1.22,14-1.57,33.37-2.09,40.89-2.42,35.6-1.65,47.55-2.05" transform="translate(72.14 -98.73)" fill="none" stroke="#000" stroke-linecap="round" stroke-linejoin="round" stroke-width="0.28"></path>
                <path d="M85.81,201.91c10-.6,22.39-1.29,26.85-1.49,7.29-.32,33.88-1.57,46.39-2" transform="translate(72.14 -98.73)" fill="none" stroke="#000" stroke-linecap="round" stroke-linejoin="round" stroke-width="0.28"></path>
                <path d="M201.45,162.55a92.62,92.62,0,0,1-4.13,28c-2.62,9-6.23,10-9.73,11l-.07,0a35.85,35.85,0,0,1-7.85.59c-3.3,0-6.53-.07-6.76-.09" transform="translate(72.14 -98.73)" fill="none" stroke="#000" stroke-linecap="round" stroke-linejoin="round" stroke-width="0.28"></path>
                <path d="M201.45,162.4a92.64,92.64,0,0,0-4.13-28c-2.62-9-6.23-10-9.73-11l-.07,0a36.48,36.48,0,0,0-7.85-.59c-3.3,0-6.57.14-6.8.15" transform="translate(72.14 -98.73)" fill="none" stroke="#000" stroke-linecap="round" stroke-linejoin="round" stroke-width="0.28"></path>
                <path d="M173.17,201.21s10.76.56,14.12-.39,6.73-1.86,9.24-10.47a91.91,91.91,0,0,0,4.09-27.8" transform="translate(72.14 -98.73)" fill="none" stroke="#000" stroke-linecap="round" stroke-linejoin="round" stroke-width="0.43"></path>
                <path d="M173,123.75s11-.43,14.34.52,6.73,1.86,9.24,10.47a91.93,91.93,0,0,1,4.09,27.81" transform="translate(72.14 -98.73)" fill="none" stroke="#000" stroke-linecap="round" stroke-linejoin="round" stroke-width="0.43"></path>
                <path d="M174.05,195.58s12.72.13,14.34,0,5.15-.14,6.25-4.18c.46-1.69,1-4.14,1.55-6.64a106.16,106.16,0,0,0,2.12-14.54l-.41-.75a1.38,1.38,0,0,0-.14-.24c-.83-1.32-1.32-1.76-1.32-3.61v-3.08" transform="translate(72.14 -98.73)" fill="none" stroke="#000" stroke-linecap="round" stroke-linejoin="round" stroke-width="0.28"></path>
                <path d="M23.78,211.6s22.87-4.93,30.31-6.25a173.1,173.1,0,0,1,27.2-2.72c10.07-.16,20.51,0,24.35,0,0,0,23.78.27,28.93.53a136.66,136.66,0,0,1,13.89,1.45s13.17,2.08,13.17,3.6c0,.76-1.62,1-2.94,1.25s-15.57,1.68-15.57,1.68c-2.9.3-9,.76-16.23,1.2s-25,1-28.24,1.06-13.93,0-18.78,0-21.61-.1-28.28-.16-27.65-.43-27.65-.43" transform="translate(72.14 -98.73)" fill="none" stroke="#000" stroke-linecap="round" stroke-linejoin="round" stroke-width="0.43"></path>
                <path d="M3.39,162.55a131.64,131.64,0,0,0,2.18,24.08c2,11.48,6.4,18.15,9.43,21.22s9.09,3.79,9.09,3.79h.71" transform="translate(72.14 -98.73)" fill="none" stroke="#000" stroke-linecap="round" stroke-linejoin="round" stroke-width="0.57"></path>
                <path d="M57.56,201a157,157,0,0,1-5-38.47" transform="translate(72.14 -98.73)" fill="none" stroke="#000" stroke-linecap="round" stroke-linejoin="round" stroke-width="0.57"></path>
                <path d="M-59,192a500.18,500.18,0,0,0,71.53,16.23" transform="translate(72.14 -98.73)" fill="none" stroke="#000" stroke-linecap="round" stroke-linejoin="round" stroke-width="0.28"></path>
                <path d="M-64.95,179.3s36.33,7.29,68.64,8.77" transform="translate(72.14 -98.73)" fill="none" stroke="#000" stroke-linecap="round" stroke-linejoin="round" stroke-width="0.28"></path>
                <path d="M-65.62,162.58s.64,1.73,1.8,1.73h1.43a.59.59,0,0,0,.32-.41,11.55,11.55,0,0,0,.1-1.32" transform="translate(72.14 -98.73)" fill="none" stroke="#000" stroke-linecap="round" stroke-linejoin="round" stroke-width="0.57"></path>
                <path d="M-27.65,213.31s25.12-.31,31.55-.62,10.64-.61,13.77-1.93" transform="translate(72.14 -98.73)" fill="none" stroke="#000" stroke-linecap="round" stroke-linejoin="round" stroke-width="0.28"></path>
                <path d="M8,175.26A113.06,113.06,0,0,1,7.21,163" transform="translate(72.14 -98.73)" fill="none" stroke="#000" stroke-linecap="round" stroke-linejoin="round" stroke-width="0.54"></path>
                <polyline points="85.45 106.71 86.28 106.79 88.66 107.02" fill="none" stroke="#000" stroke-linecap="round" stroke-linejoin="round" stroke-width="0.43"></polyline>
                <path d="M6.82,174.62s1,16.53,7.32,30.9" transform="translate(72.14 -98.73)" fill="none" stroke="#000" stroke-linecap="round" stroke-linejoin="round" stroke-width="0.43"></path>
                <path d="M180.37,217" transform="translate(72.14 -98.73)" fill="none" stroke="#000" stroke-linecap="round" stroke-linejoin="round" stroke-width="0.43"></path>
                <path d="M183.86,217s-3.53.43-3.49,0,3-1.12,3-1.12,7.75-2.64,10.72-5.41a34.73,34.73,0,0,0,7.42-9.87c1.45-3.2,3-7.34,3.67-8.62a24.89,24.89,0,0,0,2.25-6,118.56,118.56,0,0,0,2.15-23.36" transform="translate(72.14 -98.73)" fill="none" stroke="#000" stroke-linecap="round" stroke-linejoin="round" stroke-width="0.43"></path>
                <path d="M172.43,221.19s6.46-3.35,10.77-4c0,0,6.07-1.41,8.54-2.37s7.43-4.31,9.06-6.56a44.9,44.9,0,0,0,6.77-14.73c1.67-6.87,4.4-16,4.4-30.91" transform="translate(72.14 -98.73)" fill="none" stroke="#000" stroke-linecap="round" stroke-linejoin="round" stroke-width="0.43"></path>
                <path d="M186.74,214.56a1.51,1.51,0,0,0,1.1.07,38.27,38.27,0,0,0,6.27-2.53,26.92,26.92,0,0,0,5.39-4.31,31,31,0,0,0,4.2-6.82,127.36,127.36,0,0,0,4.66-15.29,113,113,0,0,0,2.29-23.13" transform="translate(72.14 -98.73)" fill="none" stroke="#000" stroke-linecap="round" stroke-linejoin="round" stroke-width="0.43"></path>
                <path d="M205.3,200.24s2.89-1.75,3.55-3.43a154.76,154.76,0,0,0,4.09-18.21,120.45,120.45,0,0,0,1-16" transform="translate(72.14 -98.73)" fill="none" stroke="#000" stroke-linecap="round" stroke-linejoin="round" stroke-width="0.43"></path>
                <path d="M150.6,218.81l-1.6.05s11.77-.27,30.38-2.16" transform="translate(72.14 -98.73)" fill="none" stroke="#000" stroke-linecap="round" stroke-linejoin="round" stroke-width="0.28"></path>
                <path d="M145.37,218.9l2.27,0" transform="translate(72.14 -98.73)" fill="none" stroke="#000" stroke-linecap="round" stroke-linejoin="round" stroke-width="0.28"></path>
                <path d="M133.54,218.81s3,.06,6.64.08" transform="translate(72.14 -98.73)" fill="none" stroke="#000" stroke-linecap="round" stroke-linejoin="round" stroke-width="0.28"></path>
                <path d="M47.63,218.7s14.72.16,21.88.1" transform="translate(72.14 -98.73)" fill="none" stroke="#000" stroke-linecap="round" stroke-linejoin="round" stroke-width="0.28"></path>
                <path d="M73.76,218.77l7.1.06" transform="translate(72.14 -98.73)" fill="none" stroke="#000" stroke-linecap="round" stroke-linejoin="round" stroke-width="0.28"></path>
                <path d="M190.15,125.18a8.45,8.45,0,0,1,2.12-.91c1-.19,6.51-.92,8.55-1.09l2.48.14,1.18-.1" transform="translate(72.14 -98.73)" fill="none" stroke="#000" stroke-linecap="round" stroke-linejoin="round" stroke-width="0.57"></path>
                <path d="M190.38,199.81a9.48,9.48,0,0,0,2.18.86c.95.2,6.5.93,8.54,1.09l2.48-.13,1,.07" transform="translate(72.14 -98.73)" fill="none" stroke="#000" stroke-linecap="round" stroke-linejoin="round" stroke-width="0.57"></path>
                <path d="M50.45,156.34l-6,.91s-.59,0-.69.38-.56,1.78-.72,2.67c0,0-2.26.36-2.92.56s-.88.6-.88,1.69" transform="translate(72.14 -98.73)" fill="none" stroke="#000" stroke-linecap="round" stroke-linejoin="round" stroke-width="0.28"></path>
                <path d="M13.93,162.72c0,24.28,6.51,40.21,6.51,40.21s1,3.47,7.91,2.37S49.21,202,51.1,201.48s4-.84,3.34-4a161.23,161.23,0,0,1-4-28.52v-.15l-6-.8s-.52-.09-.63-.5-.56-1.78-.72-2.67c0,0-2.26-.36-2.92-.56s-.88-.6-.88-1.68" transform="translate(72.14 -98.73)" fill="none" stroke="#000" stroke-linecap="round" stroke-linejoin="round" stroke-width="0.28"></path>
                <path d="M163.14,116.09s12.94,1,22.35,4.84" transform="translate(72.14 -98.73)" fill="none" stroke="#000" stroke-linecap="round" stroke-linejoin="round" stroke-width="0.28"></path>
                <path d="M163.94,208.21s14-.27,24.54-5.15" transform="translate(72.14 -98.73)" fill="none" stroke="#000" stroke-linecap="round" stroke-linejoin="round" stroke-width="0.28"></path>
                <path d="M147.83,174.42s16,.27,23.67.79c0,0,5,.49,1.94.71-10.9.78-26.84.26-26.84.26" transform="translate(72.14 -98.73)" fill="none" stroke="#000" stroke-linecap="round" stroke-linejoin="round" stroke-width="0.28"></path>
                <path d="M147.83,150.55s5.68-.09,11.88-.28l1.78-.06c3.67-.12,7.35-.27,10-.45,0,0,5-.49,1.94-.71-3.62-.26-7.79-.37-11.75-.41l-2,0c-7.11,0-13.05.17-13.05.17" transform="translate(72.14 -98.73)" fill="none" stroke="#000" stroke-linecap="round" stroke-linejoin="round" stroke-width="0.28"></path>
                <path d="M161.1,130.28s6.79.26,10.23.26" transform="translate(72.14 -98.73)" fill="none" stroke="#000" stroke-linecap="round" stroke-linejoin="round" stroke-width="0.28"></path>
                <path d="M161,194.55s6.53-.13,10.49-.4" transform="translate(72.14 -98.73)" fill="none" stroke="#000" stroke-linecap="round" stroke-linejoin="round" stroke-width="0.28"></path>
                <path d="M172.71,123s-2.49,1-2.49,2.21a3.74,3.74,0,0,0,.71,2.42" transform="translate(72.14 -98.73)" fill="none" stroke="#000" stroke-linecap="round" stroke-linejoin="round" stroke-width="0.28"></path>
                <path d="M160.59,162.46l.09,32.07V195s-.08,4.34,1,5.3,2.14,1.08,4.45,1.34c1.63.19,4,.25,6,.36l.77,0,.08-.86s-2.39-1.1-2.39-2.16a7,7,0,0,1,1-3,55.07,55.07,0,0,0,2.88-11.92,181,181,0,0,0,1.23-21.51" transform="translate(72.14 -98.73)" fill="none" stroke="#000" stroke-linecap="round" stroke-linejoin="round" stroke-width="0.57"></path>
                <path d="M172.71,201.88s-2.49-1-2.49-2.21a3.77,3.77,0,0,1,.71-2.43" transform="translate(72.14 -98.73)" fill="none" stroke="#000" stroke-linecap="round" stroke-linejoin="round" stroke-width="0.28"></path>
                <path d="M155,106.63s7.26.29,12.51.71" transform="translate(72.14 -98.73)" fill="none" stroke="#000" stroke-linecap="round" stroke-linejoin="round" stroke-width="0.28"></path>
                <path d="M204.35,115.15a20.12,20.12,0,0,1,4.2,3.46,23,23,0,0,1,3.79,5.62,51.88,51.88,0,0,1,2.32,8.61,145.2,145.2,0,0,1,2.86,29.67" transform="translate(72.14 -98.73)" fill="none" stroke="#000" stroke-linecap="round" stroke-linejoin="round" stroke-width="0.57"></path>
                <path d="M181.27,220.72A26.58,26.58,0,0,0,185,220s7.41-2.73,11-4.63,7-4,9.29-6.44a26.54,26.54,0,0,0,6.17-10.57,139,139,0,0,0,4.66-36" transform="translate(72.14 -98.73)" fill="none" stroke="#000" stroke-linecap="round" stroke-linejoin="round" stroke-width="0.57"></path>
                <path d="M204.35,209.87a20.5,20.5,0,0,0,4.2-3.46,23,23,0,0,0,3.79-5.62,51.88,51.88,0,0,0,2.32-8.61,145.2,145.2,0,0,0,2.86-29.67" transform="translate(72.14 -98.73)" fill="none" stroke="#000" stroke-linecap="round" stroke-linejoin="round" stroke-width="0.57"></path>
                <path d="M179.6,103.86a2.06,2.06,0,0,0-1.67-.9c-1.33-.18-13.21-.67-20.62-.62-6.17,0-11.09.06-15.44.17s-5.32.57-5.32.57a3.12,3.12,0,0,0-1.1,1.12" transform="translate(72.14 -98.73)" fill="none" stroke="#000" stroke-linecap="round" stroke-linejoin="round" stroke-width="0.57"></path>
                <path d="M179.6,221a2,2,0,0,1-1.67.9c-1.33.18-13.21.67-20.62.62-6.17,0-11.09-.06-15.44-.17s-5.32-.57-5.32-.57a3.12,3.12,0,0,1-1.1-1.12" transform="translate(72.14 -98.73)" fill="none" stroke="#000" stroke-linecap="round" stroke-linejoin="round" stroke-width="0.57"></path>
                <path d="M6.82,104.14s0-.5-1.24-.5-18.55-.09-39.23.23a3.46,3.46,0,0,0-2.27,1.1" transform="translate(72.14 -98.73)" fill="none" stroke="#000" stroke-linecap="round" stroke-linejoin="round" stroke-width="0.57"></path>
                <path d="M-36.08,105" transform="translate(72.14 -98.73)" fill="none" stroke="#000" stroke-linecap="round" stroke-linejoin="round" stroke-width="0.28"></path>
                <path d="M-32.35,104.59s-3.22.18-5.53.51a23.46,23.46,0,0,0-4,.73c-.91.32-2,.94-3,1.4s-2.37,1-3.77,1.67a12.74,12.74,0,0,0-3.91,2.48,91.24,91.24,0,0,0-6.72,8.14c-2.13,3-4.93,7.06-6.17,9.1a23.08,23.08,0,0,0-2.88,6.75c-.62,2.57-2.27,11.82-2.27,27.08" transform="translate(72.14 -98.73)" fill="none" stroke="#000" stroke-linecap="round" stroke-linejoin="round" stroke-width="0.57"></path>
                <path d="M-60.77,122.87s-3.56,4.79-4.56,6.71c0,0-1.07,1.54-.83,4.94" transform="translate(72.14 -98.73)" fill="none" stroke="#000" stroke-linecap="round" stroke-linejoin="round" stroke-width="0.43"></path>
                <path d="M-65.24,128.13A32.9,32.9,0,0,0-68.7,134a39.66,39.66,0,0,0-2.07,10.3c-.36,4.58-.74,9.27-.74,18.15" transform="translate(72.14 -98.73)" fill="none" stroke="#000" stroke-linecap="round" stroke-linejoin="round" stroke-width="0.57"></path>
                <path d="M-65.24,196.74a32.9,32.9,0,0,1-3.46-5.86,39.66,39.66,0,0,1-2.07-10.3c-.36-4.58-.74-9.27-.74-18.14" transform="translate(72.14 -98.73)" fill="none" stroke="#000" stroke-linecap="round" stroke-linejoin="round" stroke-width="0.57"></path>
                <path d="M-53.62,116.77a64.06,64.06,0,0,0-7.75,10.48" transform="translate(72.14 -98.73)" fill="none" stroke="#000" stroke-linecap="round" stroke-linejoin="round" stroke-width="0.43"></path>
                <path d="M-32,110.41a25.88,25.88,0,0,0-11.77.36,22.91,22.91,0,0,0-9.89,6" transform="translate(72.14 -98.73)" fill="none" stroke="#000" stroke-linecap="round" stroke-linejoin="round" stroke-width="0.43"></path>
                <path d="M-34.93,120.49a16.76,16.76,0,0,0,4.74-6.56,2.29,2.29,0,0,0,.24-1.06,2.47,2.47,0,0,0-2-2.46" transform="translate(72.14 -98.73)" fill="none" stroke="#000" stroke-linecap="round" stroke-linejoin="round" stroke-width="0.43"></path>
                <path d="M-61.37,127.25" transform="translate(72.14 -98.73)" fill="none" stroke="#000" stroke-linecap="round" stroke-linejoin="round" stroke-width="0.43"></path>
                <path d="M-52.17,116.63a58,58,0,0,0-7,9.49" transform="translate(72.14 -98.73)" fill="none" stroke="#000" stroke-linecap="round" stroke-linejoin="round" stroke-width="0.28"></path>
                <path d="M-52.19,116.66a20.7,20.7,0,0,1,8.95-5.47,24.75,24.75,0,0,1,10.81-.27s1.53.36,1.85,1.45a2.28,2.28,0,0,1-.18,1.47A16.83,16.83,0,0,1-35.24,120" transform="translate(72.14 -98.73)" fill="none" stroke="#000" stroke-linecap="round" stroke-linejoin="round" stroke-width="0.28"></path>
                <path d="M-30.73,113.09" transform="translate(72.14 -98.73)" fill="none" stroke="#000" stroke-linecap="round" stroke-linejoin="round" stroke-width="0.43"></path>
                <path d="M-59.19,126.12" transform="translate(72.14 -98.73)" fill="none" stroke="#000" stroke-linecap="round" stroke-linejoin="round" stroke-width="0.43"></path>
                <path d="M-35.24,120a21.15,21.15,0,0,1-5.48,3.41A113.36,113.36,0,0,1-57,128.88s-2.65.67-3.14.08,1-2.84,1-2.84" transform="translate(72.14 -98.73)" fill="none" stroke="#000" stroke-linecap="round" stroke-linejoin="round" stroke-width="0.28"></path>
                <path d="M-45.13,124.52c6.74-2.27,9.23-5.37,9.23-5.37,4.28-4.8,3.33-6.26,3.33-6.26-.94-1.89-5.13-1.38-5.13-1.38a18.34,18.34,0,0,0-9.36,2.82c-6.77,4.53-11.25,12.8-11.25,12.8s-.91,1.34.77,1a98.74,98.74,0,0,0,12.41-3.57" transform="translate(72.14 -98.73)" fill="none" stroke="#000" stroke-linecap="round" stroke-linejoin="round" stroke-width="0.28"></path>
                <path d="M-41.56,123.12s6.68-4.66,6.72-10.19c0-1.2-2.57-1.42-2.57-1.42" transform="translate(72.14 -98.73)" fill="none" stroke="#000" stroke-linecap="round" stroke-linejoin="round" stroke-width="0.28"></path>
                <path d="M-35.68,112a5.88,5.88,0,0,0-5.86,5.11s-.35,2.39-.51,4.52a2,2,0,0,0,.6,1.33" transform="translate(72.14 -98.73)" fill="none" stroke="#000" stroke-linecap="round" stroke-linejoin="round" stroke-width="0.28"></path>
                <path d="M-39.19,112.05h-.08c-.72.14-5.78,1.53-10,12.86l-7.32,2.39s-1.22.51-.43-.84,5.53-8,8-10a18.21,18.21,0,0,1,9.89-4.37" transform="translate(72.14 -98.73)" fill="none" stroke="#000" stroke-linecap="round" stroke-linejoin="round" stroke-width="0.28"></path>
                <path d="M-44.11,115.8l.64,0s.45-.07.29.64-.93,4.44-.93,4.44,0,.49-.69.75-3.46,1.16-3.46,1.16" transform="translate(72.14 -98.73)" fill="none" stroke="#000" stroke-linecap="round" stroke-linejoin="round" stroke-width="0.28"></path>
                <line x1="23.28" y1="26.01" x2="29.83" y2="23.77" fill="none" stroke="#000" stroke-linecap="round" stroke-linejoin="round" stroke-width="0.28"></line>
                <path d="M-35.17,113.74a22.37,22.37,0,0,0-3.33.59c-.93.34-1.1.51-1.32.86a10.62,10.62,0,0,0-.9,2l.55.24s.69-1.31.93-1.63a1.93,1.93,0,0,1,1.46-.88c.88-.11,1.74-.29,2.41-.31" transform="translate(72.14 -98.73)" fill="none" stroke="#000" stroke-linecap="round" stroke-linejoin="round" stroke-width="0.28"></path>
                <path d="M-39.32,121.07s-.85-1.37-1-1.69l-.43.26a9.41,9.41,0,0,0,.91,2" transform="translate(72.14 -98.73)" fill="none" stroke="#000" stroke-linecap="round" stroke-linejoin="round" stroke-width="0.28"></path>
                <line x1="31.52" y1="18.54" x2="31.52" y2="20.77" fill="none" stroke="#000" stroke-linecap="round" stroke-linejoin="round" stroke-width="0.28"></line>
                <path d="M-38.51,120.35a9.1,9.1,0,0,1-1.08-1.11l.17-1.9a12.14,12.14,0,0,1,1.22-1,1.64,1.64,0,0,1,.92-.25c.31,0,.78,0,.78,0l-.08,1.75" transform="translate(72.14 -98.73)" fill="none" stroke="#000" stroke-linecap="round" stroke-linejoin="round" stroke-width="0.28"></path>
                <line x1="34.26" y1="18.22" x2="35.19" y2="18.23" fill="none" stroke="#000" stroke-linecap="round" stroke-linejoin="round" stroke-width="0.28"></line>
                <line x1="33.18" y1="18.8" x2="35.14" y2="18.82" fill="none" stroke="#000" stroke-linecap="round" stroke-linejoin="round" stroke-width="0.28"></line>
                <line x1="32.82" y1="19.54" x2="35.31" y2="19.58" fill="none" stroke="#000" stroke-linecap="round" stroke-linejoin="round" stroke-width="0.28"></line>
                <line x1="33.1" y1="20.34" x2="34.71" y2="20.37" fill="none" stroke="#000" stroke-linecap="round" stroke-linejoin="round" stroke-width="0.28"></line>
                <line x1="34.01" y1="20.87" x2="34.32" y2="20.87" fill="none" stroke="#000" stroke-linecap="round" stroke-linejoin="round" stroke-width="0.28"></line>
                <line x1="31.43" y1="18.69" x2="30.75" y2="18.3" fill="none" stroke="#000" stroke-linecap="round" stroke-linejoin="round" stroke-width="0.28"></line>
                <polyline points="31.41 20.31 30.46 20.89 31.68 23.48" fill="none" stroke="#000" stroke-linecap="round" stroke-linejoin="round" stroke-width="0.28"></polyline>
                <path d="M-61.37,127.25s-2.19,4.21,2.37,3a159.15,159.15,0,0,0,18-6,23.43,23.43,0,0,0,6-3.77" transform="translate(72.14 -98.73)" fill="none" stroke="#000" stroke-linecap="round" stroke-linejoin="round" stroke-width="0.43"></path>
                <path d="M-53.62,208.13a64.06,64.06,0,0,1-7.75-10.48" transform="translate(72.14 -98.73)" fill="none" stroke="#000" stroke-linecap="round" stroke-linejoin="round" stroke-width="0.43"></path>
                <path d="M-32,214.49a25.88,25.88,0,0,1-11.77-.36,22.91,22.91,0,0,1-9.89-6" transform="translate(72.14 -98.73)" fill="none" stroke="#000" stroke-linecap="round" stroke-linejoin="round" stroke-width="0.43"></path>
                <path d="M-34.93,204.41A16.76,16.76,0,0,1-30.19,211a2.29,2.29,0,0,1,.24,1.06,2.47,2.47,0,0,1-2,2.46" transform="translate(72.14 -98.73)" fill="none" stroke="#000" stroke-linecap="round" stroke-linejoin="round" stroke-width="0.43"></path>
                <path d="M-61.37,197.65" transform="translate(72.14 -98.73)" fill="none" stroke="#000" stroke-linecap="round" stroke-linejoin="round" stroke-width="0.43"></path>
                <path d="M-52.17,208.27a58,58,0,0,1-7-9.49" transform="translate(72.14 -98.73)" fill="none" stroke="#000" stroke-linecap="round" stroke-linejoin="round" stroke-width="0.28"></path>
                <path d="M-52.19,208.24a20.7,20.7,0,0,0,8.95,5.47,24.75,24.75,0,0,0,10.81.27s1.53-.36,1.85-1.45a2.28,2.28,0,0,0-.18-1.47,16.83,16.83,0,0,0-4.48-6.16" transform="translate(72.14 -98.73)" fill="none" stroke="#000" stroke-linecap="round" stroke-linejoin="round" stroke-width="0.28"></path>
                <path d="M-30.73,211.81" transform="translate(72.14 -98.73)" fill="none" stroke="#000" stroke-linecap="round" stroke-linejoin="round" stroke-width="0.43"></path>
                <path d="M-59.19,198.78" transform="translate(72.14 -98.73)" fill="none" stroke="#000" stroke-linecap="round" stroke-linejoin="round" stroke-width="0.43"></path>
                <path d="M-35.24,204.9a21.15,21.15,0,0,0-5.48-3.41A113.36,113.36,0,0,0-57,196s-2.65-.67-3.14-.08,1,2.84,1,2.84" transform="translate(72.14 -98.73)" fill="none" stroke="#000" stroke-linecap="round" stroke-linejoin="round" stroke-width="0.28"></path>
                <path d="M-45.13,200.38c6.74,2.27,9.23,5.37,9.23,5.37,4.28,4.8,3.33,6.26,3.33,6.26-.94,1.89-5.13,1.38-5.13,1.38a18.34,18.34,0,0,1-9.36-2.82c-6.77-4.53-11.25-12.8-11.25-12.8s-.91-1.34.77-1a98.74,98.74,0,0,1,12.41,3.57" transform="translate(72.14 -98.73)" fill="none" stroke="#000" stroke-linecap="round" stroke-linejoin="round" stroke-width="0.28"></path>
                <path d="M-41.56,201.78s6.68,4.66,6.72,10.19c0,1.2-2.57,1.42-2.57,1.42" transform="translate(72.14 -98.73)" fill="none" stroke="#000" stroke-linecap="round" stroke-linejoin="round" stroke-width="0.28"></path>
                <path d="M-35.68,212.9a5.88,5.88,0,0,1-5.86-5.11s-.35-2.39-.51-4.52a2,2,0,0,1,.6-1.33" transform="translate(72.14 -98.73)" fill="none" stroke="#000" stroke-linecap="round" stroke-linejoin="round" stroke-width="0.28"></path>
                <path d="M-39.19,212.85h-.08c-.72-.14-5.78-1.53-10-12.86l-7.32-2.39s-1.22-.51-.43.84,5.53,8,8,10a18.21,18.21,0,0,0,9.89,4.37" transform="translate(72.14 -98.73)" fill="none" stroke="#000" stroke-linecap="round" stroke-linejoin="round" stroke-width="0.28"></path>
                <path d="M-44.11,209.1l.64,0s.45.07.29-.64-.93-4.44-.93-4.44,0-.49-.69-.75-3.46-1.16-3.46-1.16" transform="translate(72.14 -98.73)" fill="none" stroke="#000" stroke-linecap="round" stroke-linejoin="round" stroke-width="0.28"></path>
                <line x1="23.28" y1="101.43" x2="29.83" y2="103.67" fill="none" stroke="#000" stroke-linecap="round" stroke-linejoin="round" stroke-width="0.28"></line>
                <path d="M-35.17,211.16a22.37,22.37,0,0,1-3.33-.59c-.93-.34-1.1-.51-1.32-.86a10.43,10.43,0,0,1-.9-2l.55-.23s.69,1.31.93,1.63a1.9,1.9,0,0,0,1.46.88c.88.11,1.74.29,2.41.31" transform="translate(72.14 -98.73)" fill="none" stroke="#000" stroke-linecap="round" stroke-linejoin="round" stroke-width="0.28"></path>
                <path d="M-39.32,203.83s-.85,1.37-1,1.69l-.43-.25a9.32,9.32,0,0,1,.91-2" transform="translate(72.14 -98.73)" fill="none" stroke="#000" stroke-linecap="round" stroke-linejoin="round" stroke-width="0.28"></path>
                <line x1="31.52" y1="108.9" x2="31.52" y2="106.67" fill="none" stroke="#000" stroke-linecap="round" stroke-linejoin="round" stroke-width="0.28"></line>
                <path d="M-38.51,204.55a9.1,9.1,0,0,0-1.08,1.11l.17,1.9a12.14,12.14,0,0,0,1.22,1,1.64,1.64,0,0,0,.92.25c.31,0,.78,0,.78,0l-.08-1.75" transform="translate(72.14 -98.73)" fill="none" stroke="#000" stroke-linecap="round" stroke-linejoin="round" stroke-width="0.28"></path>
                <line x1="34.26" y1="109.22" x2="35.19" y2="109.21" fill="none" stroke="#000" stroke-linecap="round" stroke-linejoin="round" stroke-width="0.28"></line>
                <line x1="33.18" y1="108.64" x2="35.14" y2="108.62" fill="none" stroke="#000" stroke-linecap="round" stroke-linejoin="round" stroke-width="0.28"></line>
                <line x1="32.82" y1="107.9" x2="35.31" y2="107.87" fill="none" stroke="#000" stroke-linecap="round" stroke-linejoin="round" stroke-width="0.28"></line>
                <line x1="33.1" y1="107.1" x2="34.71" y2="107.07" fill="none" stroke="#000" stroke-linecap="round" stroke-linejoin="round" stroke-width="0.28"></line>
                <line x1="34.01" y1="106.57" x2="34.32" y2="106.57" fill="none" stroke="#000" stroke-linecap="round" stroke-linejoin="round" stroke-width="0.28"></line>
                <line x1="31.43" y1="108.76" x2="30.75" y2="109.14" fill="none" stroke="#000" stroke-linecap="round" stroke-linejoin="round" stroke-width="0.28"></line>
                <polyline points="31.41 107.14 30.46 106.56 31.68 103.96" fill="none" stroke="#000" stroke-linecap="round" stroke-linejoin="round" stroke-width="0.28"></polyline>
                <path d="M-61.37,197.65s-2.19-4.21,2.37-3a159.15,159.15,0,0,1,18,6,23.43,23.43,0,0,1,6,3.77" transform="translate(72.14 -98.73)" fill="none" stroke="#000" stroke-linecap="round" stroke-linejoin="round" stroke-width="0.43"></path>
                <path d="M-51.37,110.36a29.93,29.93,0,0,1-4.26,5.88" transform="translate(72.14 -98.73)" fill="none" stroke="#000" stroke-linecap="round" stroke-linejoin="round" stroke-width="0.57"></path>
                <path d="M6.82,220.87s0,.5-1.24.5-18.55.09-39.23-.23a3.46,3.46,0,0,1-2.27-1.1" transform="translate(72.14 -98.73)" fill="none" stroke="#000" stroke-linecap="round" stroke-linejoin="round" stroke-width="0.57"></path>
                <path d="M-36.08,220" transform="translate(72.14 -98.73)" fill="none" stroke="#000" stroke-linecap="round" stroke-linejoin="round" stroke-width="0.28"></path>
                <path d="M-32.35,220.42s-3.22-.18-5.53-.51a22.47,22.47,0,0,1-4-.73c-.91-.31-2-.94-3-1.4s-2.37-1-3.77-1.67a12.56,12.56,0,0,1-3.91-2.48,91.24,91.24,0,0,1-6.72-8.14c-2.13-3-4.93-7.06-6.17-9.1a23.08,23.08,0,0,1-2.88-6.75c-.62-2.57-2.27-11.81-2.27-27.08" transform="translate(72.14 -98.73)" fill="none" stroke="#000" stroke-linecap="round" stroke-linejoin="round" stroke-width="0.57"></path>
                <path d="M-60.77,202.14s-3.56-4.79-4.56-6.71c0,0-1.07-1.54-.83-4.94" transform="translate(72.14 -98.73)" fill="none" stroke="#000" stroke-linecap="round" stroke-linejoin="round" stroke-width="0.43"></path>
                <path d="M-51.79,214.3a34,34,0,0,0-3.84-5.13" transform="translate(72.14 -98.73)" fill="none" stroke="#000" stroke-linecap="round" stroke-linejoin="round" stroke-width="0.57"></path>
                <path d="M65.69,162.45v-20s-.41-6.68,7.16-6.68,64.32.11,64.32.11,6.27.12,6.27,6.75v19.82" transform="translate(72.14 -98.73)" fill="none" stroke="#000" stroke-linecap="round" stroke-linejoin="round" stroke-width="0.43"></path>
                <line x1="181.91" y1="37.13" x2="181.91" y2="63.72" fill="none" stroke="#000" stroke-linecap="round" stroke-linejoin="round" stroke-width="0.43"></line>
                <path d="M68.83,162.45V143.84s-.3-4.68,5-4.68,29.77.08,29.77.08A4.49,4.49,0,0,1,108,144v18.48" transform="translate(72.14 -98.73)" fill="none" stroke="#000" stroke-linecap="round" stroke-linejoin="round" stroke-width="0.43"></path>
                <path d="M65.69,162.45v20s-.41,6.68,7.16,6.68,64.32-.11,64.32-.11,6.27-.12,6.27-6.75V162.45" transform="translate(72.14 -98.73)" fill="none" stroke="#000" stroke-linecap="round" stroke-linejoin="round" stroke-width="0.43"></path>
                <line x1="181.91" y1="90.32" x2="181.91" y2="63.72" fill="none" stroke="#000" stroke-linecap="round" stroke-linejoin="round" stroke-width="0.43"></line>
                <path d="M68.83,162.45v18.61s-.3,4.68,5,4.68,29.77-.08,29.77-.08a4.49,4.49,0,0,0,4.39-4.73V162.45" transform="translate(72.14 -98.73)" fill="none" stroke="#000" stroke-linecap="round" stroke-linejoin="round" stroke-width="0.43"></path>
                <line x1="211.67" y1="39.52" x2="211.67" y2="87.54" fill="none" stroke="#000" stroke-linecap="round" stroke-linejoin="round" stroke-width="0.28"></line>
              </svg>
